Coordinates
version=1
nRows=17
nColumns=40
inDegrees=yes

Units are S.I. units (second, meters, Newtons, ...)
Angles are in degrees.

endheader
time	pelvis_tilt	pelvis_list	pelvis_rotation	pelvis_tx	pelvis_ty	pelvis_tz	hip_flexion_r	hip_adduction_r	hip_rotation_r	knee_angle_r	knee_angle_r_beta	ankle_angle_r	subtalar_angle_r	mtp_angle_r	hip_flexion_l	hip_adduction_l	hip_rotation_l	knee_angle_l	knee_angle_l_beta	ankle_angle_l	subtalar_angle_l	mtp_angle_l	lumbar_extension	lumbar_bending	lumbar_rotation	arm_flex_r	arm_add_r	arm_rot_r	elbow_flex_r	pro_sup_r	wrist_flex_r	wrist_dev_r	arm_flex_l	arm_add_l	arm_rot_l	elbow_flex_l	pro_sup_l	wrist_flex_l	wrist_dev_l
     50.98000000	     -3.92551896	     -5.00378744	     12.69223089	      0.98068911	      0.92474670	      0.52913660	      6.71865561	      5.73787611	    -16.83424639	     15.59076320	     15.59076320	     15.55474030	     -2.70036454	     -3.63872187	     27.87119696	     -8.52999924	      2.23133132	     15.95753696	     15.95753696	      5.95007747	     -0.28815764	      3.78174648	     -8.44548053	      5.24221348	      3.87368472	     41.91283001	    -16.68146797	      0.18456993	     66.11128435	     44.82046336	      0.00000000	      0.00000000	    -13.98078177	     -9.14045900	      7.64541942	     30.62169438	     44.34865501	      0.00000000	      0.00000000
     51.00200000	     -3.74743009	     -5.16859867	     12.67378753	      0.98179261	      0.92418294	      0.52679199	      6.11524082	      5.87528400	    -16.88840898	     15.56212303	     15.56212303	     16.09800604	     -2.33567120	     -3.13217041	     27.30185784	     -8.65289702	      2.11475003	     15.77273805	     15.77273805	      3.99111951	     -0.42722067	      0.01477673	     -8.50168936	      5.31674281	      3.85587237	     42.74464960	    -16.63401158	      1.40873270	     67.68112141	     44.76686424	      0.00000000	      0.00000000	    -14.01004284	     -9.46409407	      9.07528527	     31.41853643	     44.22387652	      0.00000000	      0.00000000
     51.02400000	     -3.78073123	     -5.25291096	     12.67129105	      0.98289885	      0.92353669	      0.52417656	      5.75013494	      5.87687404	    -16.80812968	     15.56758146	     15.56758146	     16.42470248	     -2.36179983	     -3.22048708	     27.09512780	     -8.61739650	      2.14203992	     16.01875125	     16.01875125	      3.41431058	     -0.39249236	      0.15784280	     -8.18997762	      5.23284333	      4.03051877	     43.27444343	    -16.42045113	      1.44525725	     67.89925935	     44.76133336	      0.00000000	      0.00000000	    -13.66504585	     -9.54595148	      9.08617972	     31.50884842	     44.22943789	      0.00000000	      0.00000000
     51.04600000	     -3.55206458	     -5.25520878	     12.56714604	      0.98415005	      0.92322691	      0.52131859	      5.05970319	      5.84239726	    -16.56432551	     15.54876184	     15.54876184	     16.66960879	     -2.34587809	     -3.15519912	     26.76543543	     -8.56781458	      2.29770096	     16.68285024	     16.68285024	      2.93490169	     -0.89658927	     -0.15699615	     -8.34930888	      5.19271020	      3.96467580	     44.40908831	    -15.93269887	      1.62720783	     68.59050624	     44.74203062	      0.00000000	      0.00000000	    -13.04838500	     -9.62216263	      9.28885513	     31.47737463	     44.22378130	      0.00000000	      0.00000000
     51.06800000	     -3.50161046	     -5.27172495	     12.50811004	      0.98551616	      0.92281531	      0.51820050	      4.50839415	      5.79098302	    -16.39215493	     15.45555898	     15.45555898	     17.12666748	     -2.37206653	     -2.60177795	     26.43379155	     -8.40486286	      2.72038454	     16.90929068	     16.90929068	      1.68804459	     -2.06805714	     -1.96495574	     -8.22687538	      5.02543213	      4.10790913	     44.94130204	    -16.00125942	      2.55269870	     69.42476986	     44.72440042	      0.00000000	      0.00000000	    -12.22630900	     -9.73611504	     10.28314130	     30.84283031	     44.18895691	      0.00000000	      0.00000000
     51.09000000	     -3.48860575	     -5.17919563	     12.40711613	      0.98691396	      0.92255309	      0.51479916	      3.96747592	      5.57636894	    -16.21575420	     15.35583588	     15.35583588	     17.34702934	     -2.33365548	     -2.60618141	     26.28743710	     -8.20115414	      2.72310284	     17.55136808	     17.55136808	      1.52699182	     -2.38841764	     -2.03086805	     -8.08398708	      4.77578522	      4.22561674	     45.48908654	    -15.73896541	      2.61795776	     69.66694214	     44.71871913	      0.00000000	      0.00000000	    -11.62134390	     -9.88799384	     10.28862283	     30.97839263	     44.20264623	      0.00000000	      0.00000000
     51.11200000	     -3.40248915	     -5.07698521	     12.29825206	      0.98833129	      0.92249308	      0.51110907	      3.30542990	      5.35588103	    -16.03867887	     15.18355174	     15.18355174	     17.52546669	     -2.27571737	     -2.56008437	     26.16758114	     -7.96103902	      2.84507608	     18.40973345	     18.40973345	      1.57225478	     -3.01675222	     -2.15717642	     -8.04813844	      4.57669639	      4.30222750	     46.01371749	    -15.53612304	      2.72171151	     69.93433925	     44.71135969	      0.00000000	      0.00000000	    -11.05250170	    -10.00240900	     10.30551439	     31.03616767	     44.21584543	      0.00000000	      0.00000000
     51.13400000	     -3.34132454	     -5.06651118	     12.20768362	      0.98971635	      0.92250616	      0.50710304	      2.62146810	      5.22196714	    -15.90509109	     14.87340193	     14.87340193	     17.64966095	     -2.14361117	     -2.44376343	     26.09422549	     -7.71985303	      3.31281680	     19.27053396	     19.27053396	      1.82487170	     -3.99930558	     -2.20139950	     -7.97352896	      4.53649347	      4.36886176	     46.44488187	    -15.46280606	      2.93809532	     70.24044559	     44.70142396	      0.00000000	      0.00000000	    -10.50585567	    -10.05193967	     10.34484767	     30.94634071	     44.23288034	      0.00000000	      0.00000000
     51.15600000	     -3.34391718	     -4.94639014	     12.06366768	      0.99101911	      0.92271160	      0.50288996	      1.99484625	      4.92366221	    -15.79030861	     14.58057802	     14.58057802	     17.70299710	     -1.97150253	     -2.32242109	     25.97790109	     -7.35426693	      3.58146555	     20.00780060	     20.00780060	      2.15311152	     -4.99005687	     -2.15117435	     -7.89147016	      4.37821779	      4.49617173	     46.80218748	    -15.43412138	      3.17279330	     70.47610568	     44.69321609	      0.00000000	      0.00000000	     -9.87711135	    -10.15186489	     10.33979217	     30.87293176	     44.25774017	      0.00000000	      0.00000000
     51.17800000	     -3.46513456	     -4.77709147	     11.87533385	      0.99218691	      0.92295507	      0.49860539	      1.55033310	      4.51582674	    -15.61708232	     14.39105418	     14.39105418	     17.69276003	     -1.83285015	     -2.24616814	     25.85996079	     -6.96523581	      3.58555105	     20.53564126	     20.53564126	      2.55476732	     -5.53301772	     -2.26709089	     -7.69659898	      4.13342623	      4.62288692	     47.08517940	    -15.27804535	      3.29179875	     70.60177963	     44.68814731	      0.00000000	      0.00000000	     -9.31457357	    -10.28917995	     10.30449217	     30.95664734	     44.27587336	      0.00000000	      0.00000000
     51.20000000	     -3.48470750	     -4.71942576	     11.69004964	      0.99326879	      0.92342599	      0.49401778	      0.90868212	      4.21757730	    -15.72135824	     13.97748387	     13.97748387	     17.60435598	     -1.24517783	     -2.12902133	     25.68838833	     -6.55566843	      4.15792371	     21.14949395	     21.14949395	      3.15065486	     -6.96886778	     -1.68442689	     -7.66193332	      4.13630935	      4.84811177	     47.32005521	    -15.53389830	      3.60235268	     70.75559198	     44.68633675	      0.00000000	      0.00000000	     -8.65181489	    -10.33481379	     10.20765565	     30.70489280	     44.32826224	      0.00000000	      0.00000000
     51.22200000	     -3.62068380	     -4.57344783	     11.42272067	      0.99420108	      0.92386756	      0.48951727	      0.56183803	      3.76814541	    -15.57191799	     13.89257320	     13.89257320	     17.50621334	     -1.05955193	     -2.07016634	     25.51572535	     -6.19468062	      4.01449386	     21.56084106	     21.56084106	      3.68143423	     -7.42770024	     -1.79349791	     -7.55755671	      4.00899485	      4.94306487	     47.50285159	    -15.40998633	      3.67309859	     70.81094886	     44.68548803	      0.00000000	      0.00000000	     -8.15894465	    -10.49316161	     10.14977187	     30.78039551	     44.34932136	      0.00000000	      0.00000000
     51.24400000	     -3.68119210	     -4.50170475	     11.17103420	      0.99502026	      0.92443383	      0.48490808	      0.13800951	      3.38151968	    -15.59483665	     13.76658755	     13.76658755	     17.37019570	     -0.56241681	     -2.05761587	     25.26684805	     -5.87374847	      4.07944111	     21.94242449	     21.94242449	      4.28093321	     -8.05069356	     -1.61302297	     -7.51773421	      4.01391898	      5.11748348	     47.66196955	    -15.47917988	      3.68782822	     70.73262727	     44.69503658	      0.00000000	      0.00000000	     -7.65588873	    -10.60422467	     10.04382702	     30.78776877	     44.38521285	      0.00000000	      0.00000000
     51.26600000	     -3.88288949	     -4.44231014	     10.86677316	      0.99572446	      0.92493629	      0.48035720	     -0.06041917	      2.97145434	    -15.46981042	     13.73877855	     13.73877855	     17.16472924	     -0.30654133	     -2.00543588	     25.06619933	     -5.59576637	      3.88097096	     22.11212570	     22.11212570	      4.74453612	     -8.37377550	     -1.65709005	     -7.36954987	      4.02231326	      5.16238963	     47.67334310	    -15.32350529	      3.73459710	     70.69628765	     44.69683156	      0.00000000	      0.00000000	     -7.15949985	    -10.77277067	      9.98311867	     30.88806948	     44.40538906	      0.00000000	      0.00000000
     51.28800000	     -3.99759598	     -4.30467068	     10.56817551	      0.99632698	      0.92563492	      0.47559861	     -0.28699749	      2.35929743	    -15.95320019	     13.89819032	     13.89819032	     17.05692451	      0.86555954	     -2.23180388	     24.75914977	     -5.20135326	      3.78147209	     22.32458101	     22.32458101	      5.63708832	     -8.76941810	     -0.42560540	     -7.32940882	      3.99140815	      5.19231454	     47.69278782	    -15.17448578	      3.37527556	     70.20264362	     44.75853781	      0.00000000	      0.00000000	     -6.48264714	    -10.80732081	      9.66330793	     30.44208410	     44.52151872	      0.00000000	      0.00000000
     51.31000000	     -4.19813000	     -4.36700803	     10.26675208	      0.99685486	      0.92617159	      0.47098209	     -0.38202549	      2.06297290	    -15.77022550	     13.96444785	     13.96444785	     16.76173542	      1.00171378	     -2.14997672	     24.52614436	     -5.04260848	      3.60884123	     22.35013894	     22.35013894	      6.03994564	     -8.93400460	     -0.54895310	     -7.18926987	      4.18157117	      5.05029304	     47.56160855	    -15.12542059	      3.39360391	     70.14817237	     44.75977993	      0.00000000	      0.00000000	     -6.13362660	    -10.91911281	      9.63541318	     30.54471354	     44.53187645	      0.00000000	      0.00000000
     51.33200000	     -4.29559559	     -4.17737444	      9.79791516	      0.99745810	      0.92695805	      0.46643756	     -0.47921034	      1.39945469	    -15.70848156	     14.35540011	     14.35540011	     16.66491947	      1.58183252	     -2.24115407	     24.01992020	     -4.73085000	      3.07867513	     22.24304855	     22.24304855	      6.45052328	     -8.97617617	     -0.42522727	     -7.19179671	      4.08018567	      5.32488451	     47.14547273	    -15.05516691	      3.23793748	     69.45696495	     44.79534050	      0.00000000	      0.00000000	     -5.34005805	    -11.08913045	      9.55677881	     30.62577200	     44.56997603	      0.00000000	      0.00000000
